# xmcd
#
# Track frame offsets: 
#        150
#        16030
#        41808
#        54883
#        75760
#        96138
#        105887
#        120754
#        129068
#        138637
#        151086
#        169403
#        179246
#        190451
#        209127
#        226911
#        247348
#        262329
#
# Disc length: 3688 seconds
#
# Revision: 0
# Processed by: cddbd v1.4PL0 Copyright (c) Steve Scherf et al.
# Submitted via: ExactAudioCopy v0.90b4
#
DISCID=f00e6612
DTITLE=Various Artist - Prvni velky cesky country zpevnik K - M
DYEAR=2002
DGENRE=Country
TTITLE0=Koukam jak cela zeme vstava
TTITLE1=Kosmickej vandr
TTITLE2=Kruta valka
TTITLE3=Kdo jsem ja
TTITLE4=Lady
TTITLE5=Laska je vec kouzelna
TTITLE6=Lasko, me ubyva sil
TTITLE7=Lodni Zvon zvoni
TTITLE8=Ma divka "N"
TTITLE9=Mary-Jane
TTITLE10=Medicinman
TTITLE11=Mexicka svatba
TTITLE12=Maryland
TTITLE13=Mit neco rad
TTITLE14=Mlyny
TTITLE15=Modra z dzin
TTITLE16=Muzikantskej svet
TTITLE17=Muj pritel kun
EXTD=
EXTT0=
EXTT1=
EXTT2=
EXTT3=
EXTT4=
EXTT5=
EXTT6=
EXTT7=
EXTT8=
EXTT9=
EXTT10=
EXTT11=
EXTT12=
EXTT13=
EXTT14=
EXTT15=
EXTT16=
EXTT17=
PLAYORDER=
